<?xml version="1.0" encoding="UTF-8"?>
<svg width="512px" height="512px" viewBox="0 0 512 512" version="1.1" xmlns="http://www.w3.org/2000/svg" xmlns:xlink="http://www.w3.org/1999/xlink">
    <!-- Generator: Sketch 41.2 (35397) - http://www.bohemiancoding.com/sketch -->
    <title>Artboard</title>
    <desc>Created with Sketch.</desc>
    <defs></defs>
    <g id="Resources" stroke="none" stroke-width="1" fill="none" fill-rule="evenodd">
        <g id="Artboard">
            <g id="clanout_icon_red">
                <g id="Layer_1">
                    <g id="Group">
                        <ellipse id="Oval" fill="#4CAF50" cx="255.913786" cy="256" rx="255.404202" ry="255.696018"></ellipse>
                        <path d="M373.210531,140.463281 L349.372805,164.328243 C325.156703,139.326854 290.724433,123.795689 253.26515,123.795689 C179.103338,123.795689 118.941459,184.026306 118.941459,258.272853 C118.941459,296.153745 134.454899,330.246547 159.427755,354.490318 L140.508925,373.430764 L278.238005,511.317209 C401.967152,500.710559 500.345067,402.220241 510.939611,278.349726 L373.210531,140.463281 Z" id="Shape" fill="#020202" opacity="0.15"></path>
                        <path d="M358.83222,256.757618 C358.83222,226.831714 381.913192,202.209134 411.04819,199.936281 C387.967218,136.675192 327.426963,91.218122 256.292163,91.218122 C165.48178,91.218122 91.6983442,165.08586 91.6983442,256 C91.6983442,346.91414 165.48178,420.781878 256.292163,420.781878 C327.048586,420.781878 387.210465,376.082426 410.669814,313.200146 C381.534816,310.927293 358.83222,286.304713 358.83222,256.757618 Z M344.45391,333.277019 C322.886444,357.899598 291.481186,373.430764 255.913786,373.430764 C191.211389,373.430764 138.617042,320.776324 138.617042,256 C138.617042,191.223676 191.211389,138.569236 255.913786,138.569236 C291.10281,138.569236 322.886444,154.100402 344.45391,178.722981 C323.643197,197.663427 310.400016,225.316478 310.400016,255.621191 C310.400016,285.925904 323.643197,313.957764 344.45391,333.277019 Z" id="Shape" fill="#FFFFFF"></path>
                    </g>
                </g>
            </g>
        </g>
    </g>
</svg>